<?xml version="1.0" encoding="UTF-8"?>
<svg width="24px" height="24px" viewBox="0 0 24 24" version="1.1" xmlns="http://www.w3.org/2000/svg" xmlns:xlink="http://www.w3.org/1999/xlink">
    <!-- Generator: Sketch 55.2 (78181) - https://sketchapp.com -->
    <title>ic_artist</title>
    <desc>Created with Sketch.</desc>
    <g id="ic_artist" stroke="none" stroke-width="1" fill="none" fill-rule="evenodd">
        <path d="M12,3.25 C12.8986567,3.25 13.7335685,3.45791725 14.4506688,3.85787784 C15.1648326,4.25620065 15.7437994,4.83516739 16.1421222,5.54933121 C16.5420828,6.26643145 16.75,7.10134332 16.75,8 L16.75,9 C16.75,9.89865668 16.5420828,10.7335685 16.1421222,11.4506688 C15.7437994,12.1648326 15.1648326,12.7437994 14.4506688,13.1421222 C13.7335685,13.5420828 12.8986567,13.75 12,13.75 C11.1013433,13.75 10.2664315,13.5420828 9.54933121,13.1421222 C8.83516739,12.7437994 8.25620065,12.1648326 7.85787784,11.4506688 C7.45791725,10.7335685 7.25,9.89865668 7.25,9 L7.25,8 C7.25,7.10134332 7.45791725,6.26643145 7.85787784,5.54933121 C8.25620065,4.83516739 8.83516739,4.25620065 9.54933121,3.85787784 C10.2664315,3.45791725 11.1013433,3.25 12,3.25 Z M12,4.75 C11.3520008,4.75 10.7688841,4.89521295 10.2799884,5.1678931 C9.80896708,5.43060391 9.43060391,5.80896708 9.1678931,6.27998845 C8.89521295,6.76888414 8.75,7.3520008 8.75,8 L8.75,9 C8.75,9.6479992 8.89521295,10.2311159 9.1678931,10.7200116 C9.43060391,11.1910329 9.80896708,11.5693961 10.2799884,11.8321069 C10.7688841,12.1047871 11.3520008,12.25 12,12.25 C12.6479992,12.25 13.2311159,12.1047871 13.7200116,11.8321069 C14.1910329,11.5693961 14.5693961,11.1910329 14.8321069,10.7200116 C15.1047871,10.2311159 15.25,9.6479992 15.25,9 L15.25,8 C15.25,7.3520008 15.1047871,6.76888414 14.8321069,6.27998845 C14.5693961,5.80896708 14.1910329,5.43060391 13.7200116,5.1678931 C13.2311159,4.89521295 12.6479992,4.75 12,4.75 Z M4.75,20 C4.75,20.4142136 4.41421356,20.75 4,20.75 C3.58578644,20.75 3.25,20.4142136 3.25,20 C3.25,16.7698263 6.60976833,14.25 10.6666667,14.25 L13.3333333,14.25 C17.3902317,14.25 20.75,16.7698263 20.75,20 C20.75,20.4142136 20.4142136,20.75 20,20.75 C19.5857864,20.75 19.25,20.4142136 19.25,20 C19.25,17.7073263 16.6402317,15.75 13.3333333,15.75 L10.6666667,15.75 C7.35976833,15.75 4.75,17.7073263 4.75,20 Z" id="Combined-Shape" fill="#3D3D3D"></path>
    </g>
</svg>