<?xml version="1.0" encoding="UTF-8"?>
<svg width="24px" height="24px" viewBox="0 0 24 24" version="1.1" xmlns="http://www.w3.org/2000/svg" xmlns:xlink="http://www.w3.org/1999/xlink">
    <!-- Generator: Sketch 55.2 (78181) - https://sketchapp.com -->
    <title>ic_like</title>
    <desc>Created with Sketch.</desc>
    <g id="ic_like" stroke="none" stroke-width="1" fill="none" fill-rule="evenodd">
        <path d="M12.8180195,6.17516234 C14.5753788,4.41780303 17.4246212,4.41780303 19.1819805,6.17516234 C20.9393398,7.93252165 20.9393398,10.7817641 19.1819805,12.5391234 L12,19.7211039 L4.81801948,12.5391234 C3.06066017,10.7817641 3.06066017,7.93252165 4.81801948,6.17516234 C6.5753788,4.41780303 9.4246212,4.41780303 11.1819805,6.17516234 L12,6.99318183 L12.8180195,6.17516234 Z M18.1213203,11.4784632 C19.2928932,10.3068903 19.2928932,8.40739539 18.1213203,7.23582251 C16.9497475,6.06424964 15.0502525,6.06424964 13.8786797,7.23582251 L12,9.11450217 L10.1213203,7.23582251 C8.94974747,6.06424964 7.05025253,6.06424964 5.87867966,7.23582251 C4.70710678,8.40739539 4.70710678,10.3068903 5.87867966,11.4784632 L12,17.5997835 L18.1213203,11.4784632 Z" id="icon" fill="#3D3D3D"></path>
    </g>
</svg>