<?xml version="1.0" encoding="UTF-8"?>
<svg width="24px" height="24px" viewBox="0 0 24 24" version="1.1" xmlns="http://www.w3.org/2000/svg" xmlns:xlink="http://www.w3.org/1999/xlink">
    <!-- Generator: Sketch 55.2 (78181) - https://sketchapp.com -->
    <title>ic_more</title>
    <desc>Created with Sketch.</desc>
    <g id="ic_more" stroke="none" stroke-width="1" fill="none" fill-rule="evenodd">
        <rect id="Bounds" x="0" y="0" width="24" height="24"></rect>
        <path d="M12,7 C11.175,7 10.5,6.325 10.5,5.5 C10.5,4.675 11.175,4 12,4 C12.825,4 13.5,4.675 13.5,5.5 C13.5,6.325 12.825,7 12,7 Z M12,10.5 C12.825,10.5 13.5,11.175 13.5,12 C13.5,12.825 12.825,13.5 12,13.5 C11.175,13.5 10.5,12.825 10.5,12 C10.5,11.175 11.175,10.5 12,10.5 Z M12,17 C12.825,17 13.5,17.675 13.5,18.5 C13.5,19.325 12.825,20 12,20 C11.175,20 10.5,19.325 10.5,18.5 C10.5,17.675 11.175,17 12,17 Z" id="Shape" fill="#3D3D3D"></path>
    </g>
</svg>