<?xml version="1.0" encoding="UTF-8"?>
<svg width="24px" height="24px" viewBox="0 0 24 24" version="1.1" xmlns="http://www.w3.org/2000/svg" xmlns:xlink="http://www.w3.org/1999/xlink">
    <!-- Generator: Sketch 55.2 (78181) - https://sketchapp.com -->
    <title>ic_settings</title>
    <desc>Created with Sketch.</desc>
    <g id="ic_settings" stroke="none" stroke-width="1" fill="none" fill-rule="evenodd">
        <path d="M18.69375,12.8775 C18.7275,12.59625 18.75,12.30375 18.75,12 C18.75,11.69625 18.7275,11.40375 18.6825,11.1225 L20.58375,9.6375 C20.7525,9.5025 20.7975,9.255 20.69625,9.06375 L18.89625,5.9475 C18.78375,5.745 18.5475,5.6775 18.345,5.745 L16.10625,6.645 C15.63375,6.285 15.13875,5.9925 14.5875,5.7675 L14.25,3.3825 C14.21625,3.1575 14.025,3 13.8,3 L10.2,3 C9.975,3 9.795,3.1575 9.76125,3.3825 L9.42375,5.7675 C8.8725,5.9925 8.36625,6.29625 7.905,6.645 L5.66625,5.745 C5.46375,5.66625 5.2275,5.745 5.115,5.9475 L3.315,9.06375 C3.2025,9.26625 3.2475,9.5025 3.4275,9.6375 L5.32875,11.1225 C5.28375,11.40375 5.25,11.7075 5.25,12 C5.25,12.2925 5.2725,12.59625 5.3175,12.8775 L3.41625,14.3625 C3.2475,14.4975 3.2025,14.745 3.30375,14.93625 L5.10375,18.0525 C5.21625,18.255 5.4525,18.3225 5.655,18.255 L7.89375,17.355 C8.36625,17.715 8.86125,18.0075 9.4125,18.2325 L9.75,20.6175 C9.795,20.8425 9.975,21 10.2,21 L13.8,21 C14.025,21 14.21625,20.8425 14.23875,20.6175 L14.57625,18.2325 C15.1275,18.0075 15.63375,17.70375 16.095,17.355 L18.33375,18.255 C18.53625,18.33375 18.7725,18.255 18.885,18.0525 L20.685,14.93625 C20.7975,14.73375 20.7525,14.4975 20.5725,14.3625 L18.69375,12.8775 L18.69375,12.8775 Z M12,15.375 C10.14375,15.375 8.625,13.85625 8.625,12 C8.625,10.14375 10.14375,8.625 12,8.625 C13.85625,8.625 15.375,10.14375 15.375,12 C15.375,13.85625 13.85625,15.375 12,15.375 Z" id="Shape-Copy" fill="#3D3D3D"></path>
    </g>
</svg>